<svg xmlns="http://www.w3.org/2000/svg" width="56" height="36" xmlns:xlink="http://www.w3.org/1999/xlink">
  <defs>
    <path id="a" d="M1009.95 2709c.05.05.07.13.06.2-.01.05-.79 4.8-6.82 4.8H964.8c-6.02 0-6.8-4.75-6.8-4.8a.26.26 0 0 1 .26-.3h51.49c.07 0 .15.03.2.1zm-22.08 1.56h-7.74v1.77h7.74zm-24.27-3.5c-.59 0-1.07-.48-1.07-1.07v-24.92c0-.59.48-1.06 1.07-1.06h40.8c.59 0 1.07.47 1.07 1.06v24.92c0 .59-.48 1.07-1.07 1.07zm2.67-3.72h35.46v-19.61h-35.46z"/>
  </defs>
  <use fill="#fff" xlink:href="#a" transform="translate(-956 -2679)"/>
</svg>
