<svg xmlns="http://www.w3.org/2000/svg" width="45" height="52" xmlns:xlink="http://www.w3.org/1999/xlink">
  <defs>
    <path id="a" d="M416.5 3277.78c-3.3 0-11.04-3.94-11.04-13.4 0-1.3.04-2.58.14-3.78.18-2.37.67-4.47 1.88-6.08 1.56-2.18 4.29-3.52 9.02-3.52 4.74 0 7.46 1.34 9.02 3.52 1.21 1.61 1.7 3.7 1.88 6.08.1 1.2.14 2.47.14 3.79 0 9.45-7.75 13.39-11.04 13.39zm3.6-21.87c-2.6-.79-4.6-.79-7.2 0l.8 2.02a9.17 9.17 0 0 1 5.6 0l.8-2.02zm-13 6.43c-.02.68-.03 1.36-.03 2.05 0 4.62 2.05 7.48 3.77 9.06 2.17 2 4.57 2.73 5.66 2.73 1.09 0 3.5-.73 5.66-2.73a11.91 11.91 0 0 0 3.77-9.06c0-.69 0-1.37-.03-2.05-.13.28-.67 1.34-1.5 1.44-.97.12-2.57-3.39-7.9-3.4-5.33.01-6.93 3.52-7.9 3.4-.83-.1-1.37-1.16-1.5-1.44zm29.9 29.17c.01.13 0 .26-.04.38-.06.16-.94 2.44-5.36 4.27a2.2 2.2 0 0 0-1-.7 2.18 2.18 0 0 0 1.18-3.1 6.5 6.5 0 0 0-5.68-3.34 6.45 6.45 0 0 0-5.38 2.85h-8.45a6.49 6.49 0 0 0-11.07.5 2.17 2.17 0 0 0 1.2 3.1 2.2 2.2 0 0 0-.98.7c-4.43-1.84-5.32-4.12-5.38-4.28a.77.77 0 0 1-.03-.38c.2-1.29 1.38-7.78 4.06-9.57 1.58-1.07 7.19-4.07 9.53-5.31.27-.15.6-.12.84.07 1.24.97 2.6 1.62 4.04 1.94.25.05.46.23.55.48l1.47 3.84 1.47-3.84c.09-.25.3-.43.55-.48 1.44-.32 2.8-.97 4.04-1.94a.78.78 0 0 1 .84-.07l.04.02c2.37 1.25 7.91 4.2 9.5 5.29 2.33 1.6 3.49 6.08 4.05 9.57zm-7.12 5.72c.1 0 .18.05.23.13.05.08.06.19 0 .27a4.57 4.57 0 0 1-8.25-.5h-10.73a4.53 4.53 0 0 1-4.23 2.87c-1.68 0-3.2-.9-4.01-2.36a.27.27 0 0 1 0-.27.28.28 0 0 1 .24-.13h4.07c.07-.18.21-.65.2-1.78a4.9 4.9 0 0 0-.2-1.78l-4.08.01a.27.27 0 0 1-.24-.4 4.57 4.57 0 0 1 8.25.49h10.74a4.53 4.53 0 0 1 4.23-2.86c1.67 0 3.2.9 4.01 2.35a.27.27 0 0 1-.24.4l-4.07.01c-.07.17-.21.65-.2 1.78 0 1.13.13 1.6.2 1.77h4.08z"/>
  </defs>
  <use fill="#fff" xlink:href="#a" transform="translate(-394 -3249)"/>
</svg>
