<svg xmlns="http://www.w3.org/2000/svg" xmlns:xlink="http://www.w3.org/1999/xlink" width="62" height="30" viewBox="0 0 62 30"><defs><path id="a" d="M436.39 2265.34a4.71 4.71 0 0 1-4.76 4.66 4.71 4.71 0 0 1-4.75-4.66 4.71 4.71 0 0 1 4.75-4.65 4.71 4.71 0 0 1 4.76 4.65zm-1.9 0c0-1.54-1.28-2.79-2.86-2.79a2.83 2.83 0 0 0-2.85 2.8c0 1.53 1.28 2.79 2.85 2.79a2.83 2.83 0 0 0 2.86-2.8zm-30.44 0a4.71 4.71 0 0 1-4.75 4.66 4.71 4.71 0 0 1-4.76-4.66 4.71 4.71 0 0 1 4.76-4.65 4.71 4.71 0 0 1 4.75 4.65zm-1.9 0c0-1.54-1.28-2.79-2.85-2.79a2.83 2.83 0 0 0-2.86 2.8c0 1.53 1.28 2.79 2.86 2.79a2.83 2.83 0 0 0 2.85-2.8zm40.76.48a.94.94 0 0 1-.82.45h-2.85c-.56 0-1.02-.36-.95-.93 0-3.6-2.98-6.51-6.66-6.51a6.59 6.59 0 0 0-6.65 6.49v.01c0 .52-.43.94-.96.94h-17.11c-.57 0-1.02-.36-.96-.93 0-3.6-2.98-6.51-6.65-6.51a6.59 6.59 0 0 0-6.66 6.49v.01c0 .52-.42.94-.95.94h-2.85a.95.95 0 0 1-.92-.67 22.07 22.07 0 0 1-.86-7.7l.25-1.87c.27-1.4.63-2.18.66-2.25.15-.3.45-.51.8-.54l12.08-.9 7.39-5.43c.27-.2 6.38-4.09 30.2-.17.27.04.5.18.64.4l3.84 5.66.07.17.05.27v4.43c.47.94 1.97 4.52-.13 8.15zm-25.54-13.98v-4.42a.48.48 0 0 0-.51-.46c-5.32.31-7.29 1.33-7.5 1.46a.29.29 0 0 0-.05.02l-4.12 3.03c-.37.27-.17.84.28.84h11.42c.26 0 .48-.2.48-.47zm10.32-.22l-2.52-4.37a.48.48 0 0 0-.4-.24 76.54 76.54 0 0 0-5.04-.14.47.47 0 0 0-.46.46v4.52c0 .25.21.46.47.46h7.54c.36 0 .6-.38.41-.7zm12.13-.03l-1.98-2.91a.5.5 0 0 0-.32-.2c-3.5-.57-6.6-.96-9.32-1.2a.47.47 0 0 0-.45.69l2.4 4.1c.08.15.24.24.4.24h8.88c.38 0 .6-.42.4-.72z"/></defs><g transform="translate(-385 -2241)"><use fill="#fff" xlink:href="#a"/></g></svg>